<svg width="66" height="66" viewBox="0 0 66 66" fill="none" xmlns="http://www.w3.org/2000/svg">
<g id="bi:display" clip-path="url(#clip0_16_36)">
<g id="Group">
<path id="Vector" d="M0.828705 16.883C0.828705 16.883 0.828705 8.85352 8.85822 8.85352H57.0353C57.0353 8.85352 65.0648 8.85352 65.0648 16.883V40.9716C65.0648 40.9716 65.0648 49.0011 57.0353 49.0011H40.9763C40.9763 51.6789 41.3095 53.6863 41.98 55.0232H44.991C45.5234 55.0232 46.034 55.2347 46.4105 55.6112C46.7869 55.9876 46.9984 56.4982 46.9984 57.0306C46.9984 57.563 46.7869 58.0736 46.4105 58.45C46.034 58.8265 45.5234 59.038 44.991 59.038H20.9025C20.3701 59.038 19.8595 58.8265 19.4831 58.45C19.1066 58.0736 18.8951 57.563 18.8951 57.0306C18.8951 56.4982 19.1066 55.9876 19.4831 55.6112C19.8595 55.2347 20.3701 55.0232 20.9025 55.0232H23.9136C24.584 53.6863 24.9172 51.6789 24.9172 49.0011H8.85822C8.85822 49.0011 0.828705 49.0011 0.828705 40.9716V16.883ZM6.44134 13.4504C6.00034 13.7574 5.6485 14.1758 5.42159 14.6629C5.07937 15.37 4.88276 16.1386 4.84346 16.9232V40.9716C4.84346 42.2764 5.15661 42.987 5.4256 43.3885C5.70663 43.81 6.10811 44.1432 6.63806 44.4082C7.31469 44.736 8.04793 44.9309 8.798 44.9823L8.89837 44.9863H57.0353C58.3401 44.9863 59.0507 44.6732 59.4522 44.4042C59.8932 44.0972 60.245 43.6788 60.4719 43.1917C60.7997 42.5151 60.9946 41.7819 61.046 41.0318L61.0501 40.9314V16.883C61.0501 15.5782 60.7369 14.8676 60.4679 14.4661C60.161 14.025 59.7427 13.6731 59.2555 13.4464C58.5484 13.1042 57.7797 12.9076 56.9952 12.8683H8.85822C7.55342 12.8683 6.84281 13.1814 6.44134 13.4504Z" fill="white"/>
</g>
</g>
<defs>
<clipPath id="clip0_16_36">
<rect width="64.2361" height="64.2361" fill="white" transform="translate(0.828705 0.823975)"/>
</clipPath>
</defs>
</svg>
