<svg width="92" height="92" viewBox="0 0 92 92" fill="none" xmlns="http://www.w3.org/2000/svg">
<g id="bi:vector-pen" clip-path="url(#clip0_16_29)">
<g id="Group">
<path id="Vector" fill-rule="evenodd" clip-rule="evenodd" d="M59.4562 72.5381C59.4566 72.8021 59.4048 73.0636 59.3039 73.3076C59.203 73.5516 59.055 73.7733 58.8683 73.96C58.6816 74.1467 58.4599 74.2948 58.2159 74.3957C57.9719 74.4966 57.7103 74.5483 57.4463 74.548L34.7354 74.548C34.4714 74.5483 34.2099 74.4966 33.9659 74.3957C33.7218 74.2948 33.5001 74.1467 33.3134 73.96C33.1267 73.7733 32.9787 73.5516 32.8778 73.3076C32.7769 73.0636 32.7252 72.8021 32.7255 72.5381L32.7255 61.739L25.6738 49.9805C25.1366 49.0853 24.8413 48.066 24.8169 47.0223C24.7925 45.9787 25.0399 44.9466 25.5347 44.0274L46.0909 5.84751L66.6499 44.0302C67.1436 44.9487 67.3904 45.9798 67.366 47.0223C67.3416 48.0648 67.0469 49.0832 66.5108 49.9776L59.4562 61.7334L59.4562 72.5381ZM56.3108 59.1727L63.0673 47.9138C63.2467 47.615 63.3452 47.2746 63.3532 46.9262C63.3612 46.5778 63.2783 46.2332 63.1127 45.9266L46.0937 14.3158L29.069 45.9322C28.9054 46.2381 28.8239 46.5812 28.8323 46.928C28.8408 47.2747 28.939 47.6134 29.1173 47.9109L35.8738 59.1755L56.3136 59.1755L56.3108 59.1727Z" fill="white"/>
<path id="Vector_2" fill-rule="evenodd" clip-rule="evenodd" d="M45.9206 14.6367L43.2521 41.3107C42.6906 41.8721 42.3083 42.5875 42.1534 43.3663C41.9984 44.1451 42.0779 44.9523 42.3818 45.6859C42.6857 46.4195 43.2003 47.0465 43.8605 47.4877C44.5207 47.9288 45.2969 48.1643 46.091 48.1643C46.885 48.1643 47.6612 47.9288 48.3214 47.4877C48.9817 47.0465 49.4963 46.4195 49.8001 45.6859C50.104 44.9523 50.1835 44.1451 50.0286 43.3663C49.8737 42.5875 49.4913 41.8721 48.9298 41.3107L46.2613 14.6367L46.091 14.3188L45.9206 14.6367Z" fill="white"/>
</g>
</g>
<defs>
<clipPath id="clip0_16_29">
<rect width="64.2361" height="64.2361" fill="white" transform="translate(91.0751 46.1023) rotate(135)"/>
</clipPath>
</defs>
</svg>
